<?xml version="1.0" standalone="no"?> <!DOCTYPE svg PUBLIC "-//W3C//DTD SVG 1.0//EN" "http://www.w3.org/TR/2001/REC-SVG-20010904/DTD/svg10.dtd" > <svg xmlns="http://www.w3.org/2000/svg" width="100%" height="100%">
<defs >
<font horiz-adv-x="386" ><font-face
    font-family="Triforce"
    units-per-em="1000"
    panose-1="0 0 0 0 0 0 0 0 0 0"
    ascent="750"
    descent="-170"
    alphabetic="0" />
<missing-glyph horiz-adv-x="300" />
<glyph unicode=" " glyph-name="space" horiz-adv-x="300" />
<glyph unicode="!" glyph-name="exclam" horiz-adv-x="262" d="M-3 700H238L217 49H122L107 627L-3 700ZM115 -23H217V-166H115V-23ZM142 372L172 324L203 372L173 609L142 372ZM172 261L143 223L172 184L203 223L172 261Z" />
<glyph unicode="&quot;" glyph-name="quotedbl" horiz-adv-x="208" d="M71 702L50 529H16L0 702H71ZM186 702L165 529H131L115 702H186Z" />
<glyph unicode="#" glyph-name="numbersign" horiz-adv-x="598" d="M77 516H211L277 700H334L269 516H397L464 700H521L455 516H578L558 462H437L392 336H518L502 284H372L306 99H250L316 284H188L122 99H64L129 284H0L16 336H146L193 462H56L77 516ZM336 336L379
462H251L205 336H336Z" />
<glyph unicode="$" glyph-name="dollar" horiz-adv-x="584" d="M546 446Q548 431 552 415T557 383T556 352T541 323Q474 247 408 171T270 24Q252 22 235 23T202 27T171 32T142 36Q129 37 113 39T82 43T56 47T41 51Q28 59 26 72T21 98Q19 125 17 150T10 202Q8 226
4 249T0 297Q8 312 19 325T41 354Q76 392 109 430T177 508Q193 528 216 554T259 606Q264 613 272 616T290 620T307 621T318 622Q362 627 406 627T495 632Q502 631 507 627T513 618Q516 601 518 585T524 551Q530 523 536 494T546 446ZM95 376Q88 367 80 357T66 335Q77
330 88 336T106 347Q141 376 170 410T229 477Q233 483 235 490T243 503Q245 513 245 525T240 544Q206 501 167 462T95 376ZM41 136Q47 128 56 133T73 147Q75 151 81 160T87 186Q89 200 86 211T70 231Q67 231 62 233T52 237T42 237T35 229Q43 185 41 136ZM245 54Q245
69 244 86T238 118Q230 121 222 125T205 132Q190 134 176 135T148 141Q130 127 114 112T81 79V73Q96 66 110 64T140 62T170 61T204 59Q221 57 229 53T245 54ZM417 344Q426 353 429 365T433 389T433 412T431 429Q430 437 426 455T417 487Q411 489 398 489T372 489Q352
491 335 487T300 478Q265 450 238 418T183 352Q176 342 167 333T150 315T135 295T126 273Q128 255 128 245T133 222Q135 211 135 203T138 187Q141 174 156 169T179 161Q188 159 197 156T216 151T235 149T253 155Q271 180 292 203T334 249T377 296T417 344ZM409
519Q425 540 443 559T472 601Q431 605 399 600T326 593H309Q307 593 304 593T298 592Q298 578 300 570T304 549Q306 539 307 528T313 508Q327 506 340 507T369 509Q380 511 390 510T409 519ZM345 456Q366 457 382 444T409 413Q412 403 407 390T392 362T372 335T354
314Q328 286 306 257T254 202Q243 193 229 186T197 186Q174 198 168 215T156 252Q152 266 155 275T164 290Q196 326 228 359T293 426Q305 434 318 442T345 456ZM386 385Q392 393 391 402T384 420Q376 427 368 432T348 436Q337 431 329 426T312 415Q304 409 293
398T270 374T248 352T234 339Q232 336 224 328T207 310T189 289T177 270Q175 265 175 256T177 236T184 217T197 202Q211 197 222 200T241 211T257 228T271 245Q284 260 297 274T328 307Q334 315 343 326T360 348T376 369T386 385Z" />
<glyph unicode="%" glyph-name="percent" horiz-adv-x="1007" d="M971 35L999 18V10L927 -1L923 3L876 -4L780 24L758 33L733 39L637 68H631L617 49L615 35L606 27L585 29L580 14L566 -20L499 -91L518 -110L536 -118L562 -148V-158L566 -159L562 -162L566 -165L562
-168L568 -177L507 -179L455 -172L404 -152L349 -137L346 -140L337 -137H331V-133L342 -127L341 -124L342 -110L375 -71L393 -52L400 -22L409 -11L411 8L415 10L394 22L374 27L356 18L341 3L310 -15L276 -27L266 -36L270 -95L265 -104L266 -108L258 -122L266 -127H270L261
-133L258 -129L251 -133L239 -129L236 -133L189 -127L165 -140L113 -137L110 -135L108 -137L104 -135H98V-129L101 -127L83 -96L78 -64L79 -60L75 -49L31 -16L16 104L10 167H9V178H10V175L14 172L10 170L20 134L22 145L9 276L10 280L9 281V288H10L14 291L16 288H20L22
291L20 293L22 295L20 299H16L20 301L83 314L90 324L98 345L123 368V379L157 406L148 441L88 444L79 450H50L46 452L45 450L41 452H39V456L56 460L64 468L52 475L85 493L101 510L138 540L140 544V547L138 551L148 572L167 603L177 610L182 625L208 652L239 683L270
694L302 695L305 698L371 695L390 688L434 658L469 619L488 578L511 551L513 490L503 434L485 402L478 394V387L492 368V343L488 339L494 310L499 295L503 280L511 245L538 211L572 178V167L580 160L598 156V153L573 160L572 161L557 138L551 131L532 119H528L524
117L528 109L562 83H576L580 84L593 79L585 83H582L576 77L585 68L601 72L608 79L612 106L620 126V138L606 150L605 153L626 142H627L649 181L652 186L667 182L671 175L659 138V134L677 126L749 109L872 79L922 65L941 52H946L971 35V35ZM649 172L634 142L649 167L664
172L667 175L661 181H652L649 172V172ZM184 619L182 610L236 628L239 625H251L265 628L266 625H272L310 619L316 614L337 608L362 595L405 551L423 515V526L425 529L430 522V512L428 478L442 510L449 537L453 562L438 581L428 606L430 608L459 565L462 537L467
547H469L473 545L469 544V534L449 490L455 485V475L453 471L444 433L448 431L484 413L488 424L494 441L499 450L506 501L503 503L506 507L507 522L506 526L507 529V534L506 537L507 540L480 578L462 616L419 660H415L404 672L375 688L346 694L327 690L265 683L244
677L184 619V619ZM425 364L430 358L428 329L448 354L474 402L467 412L442 419L419 383L393 364V348L381 320L360 299L356 301L360 320L356 325L342 299L321 266H312L291 281L288 280L283 138L286 137H288L352 163L360 161L381 172V178L379 175H374L371 178V181L398
211L411 237L409 241L411 256L409 274L411 293L419 357L425 364V364ZM409 186L405 197H400L394 188L409 186V186ZM365 156L352 148L365 153V156V156ZM286 117L283 119V123H280V112H283L310 119L337 137L341 145H337L331 134L310 123L286 117V117ZM297 128H298L327
142H321L297 128V128ZM319 116L280 102L283 83L305 93L352 137L319 116V116ZM184 402L178 362L182 348L197 332L208 364L196 416L184 438L185 422L184 402V402ZM177 401L178 419L167 438L157 441L159 413L173 398L177 401V401ZM217 362L208 329L226 324L255 325L236
348L217 362V362ZM221 369L255 348L286 335L352 358L360 368L365 362L362 358L365 329L371 318L381 337L386 412L400 441L398 460L390 482L375 496V488L394 452L385 419L381 422L385 456L379 463L360 466L354 463L371 450V444L367 441L365 444L360 452L346 456L349
452V441L341 433H331L324 441L312 450L310 446H298L293 452H286L277 450L276 452V456L266 444H265V438L261 434L258 438L251 431H244L236 433L232 444H221L214 441L217 431L214 427L211 431L207 441L208 444L207 446L192 441L197 431L221 369V369ZM244 446L251
444V446H244V446ZM371 478L367 482V496L354 482H362L371 478V478ZM356 475H349L327 463L356 475V475ZM416 406L400 389H394V375L398 379H400L423 401L434 424L438 450H430L425 446L423 427L416 406V406ZM400 401L405 406H409L415 427L400 401V401ZM436 457L438
456V457L444 475H442L434 468L409 444L394 413H398V416L423 452L436 457V457ZM265 332V329L272 320L286 313L288 299L308 280L319 276L346 324L356 345L352 354L335 343L293 325L286 324L265 332V332ZM145 556L144 547L145 545L163 551L165 547L184 556L222 559L266
554L316 544L354 526L400 478L405 450L415 457L416 496L409 526L398 545L365 581L349 591L327 600L308 606L302 610L233 616L192 606L170 595L145 556V556ZM154 450L201 463L203 460L201 457V456H203L226 460L280 482L283 478V477L277 471L247 457L258 460L291
471L335 501L337 500V493L331 488L312 471L327 475L360 496L365 507L354 515L327 529L265 545L185 547L167 537H159L145 534L96 490H98L101 488V485L96 478H94L83 463L66 457H75L78 456L113 457L123 452V450H154V450ZM154 394L133 373L138 362L165 329L182 325V332L173
345L167 368L170 387L163 394H154V394ZM108 343L96 320H104L113 324L152 329L140 345L127 358L121 357L108 343V343ZM31 87L34 84L41 3L46 -9V-5L52 -1H56L60 -9L56 -15L60 -22H66L78 -34L88 -26L90 -27V-30L85 -39L108 -52L119 -47L121 -49V-52L119 -60L140 -78H145V-74L154
-66L159 -71L154 -84L170 -78L182 -70H177L173 -66V-60L178 -55H184L189 -60L185 -64H189L211 -45H208L207 -41V-36L211 -30L221 -39L228 -30L239 -16H236L232 -11L236 -5L244 -9V-5L251 79L247 219L251 222L247 224V232L242 293H233L228 299L232 301L228 304L211
310L203 306L207 304V301L201 295H197L192 301V304L197 310H170L159 304L163 301L167 293L170 207H178L197 205L201 207H203L242 205L244 138L239 131L207 126L203 128L165 123V15L170 4L167 3L170 -16L167 -34L110 -39L108 -36L104 -26L98 3L101 4L98 8V15L96
91L90 117L35 112L31 117L34 178L31 186L39 193L75 197L90 204V288L101 293L96 301L64 295L66 285L64 281H57L56 285V295L31 291V288L34 280L31 276H22L20 280V285H14L25 175L22 172L27 104L34 91L31 87V87ZM133 293L98 285V197L94 192L57 188L39 182L41 119H52L66
123L98 128L101 126V123L108 87L104 84L110 -16L115 -27H127L159 -26L157 126L163 131H165L221 138L228 137L233 142L232 200H221L184 197L163 200L159 280L163 281L159 285L157 293H133V293ZM108 304L113 295L148 301V306H133L108 304V304ZM44 -15V-10H39V-15H44V-15ZM78
-45L108 -64L46 -20L78 -45V-45ZM184 -118L192 -115L214 -95L232 -59H228L217 -70L173 -99L159 -103L85 -64V-85L104 -122L127 -135H163L178 -127V-122L182 -118H184V-118ZM265 -74L261 -66L265 -64L261 -60V-39H255L247 -45L233 -71H236L251 -52L253 -55V-59L244
-74L226 -95L207 -115V-122H232L244 -114L258 -95L265 -74V-74ZM265 116L261 117L266 160L265 161L266 163L265 167L266 175L265 178L266 181L265 182V192L266 193L265 197V200L266 204L265 205V211L266 280L265 281V285L266 288L265 291V304L255 313L247 310L236
314L197 318H196H194L152 320L145 314L144 318L78 310L25 295H27L46 301L50 299L52 301L79 306L83 304L85 306H88L113 313L194 318H197L239 313L253 299L255 281L253 280L255 276L261 182L258 102L261 98L258 96L261 93L255 15L258 14L251 -16L221 -49L173 -85L154
-91H165L185 -80L228 -47L251 -27L258 -15L265 102L261 104L265 106V109L261 112L265 116V116ZM266 39L270 24L266 -15L272 18L270 22V24V27L272 47L270 49L272 52V62L270 65L272 68L270 72L272 73V83L276 112L272 116L277 138L276 142L277 150L276 153L277 156L283
295L277 310H270L272 304L270 301L272 299V281L266 39V39ZM341 10L438 119L449 126L478 138L474 142L455 150L425 167L423 163L400 172V175L404 178H394L385 156L362 126L356 131L335 106L297 77L283 73L277 27L280 24V15L277 14L280 10L277 8V-5L272 -22L312 -5L341
10V10ZM352 -129V-127H349V-129H352V-129ZM425 -154H430L419 -149L409 -143L385 -140L400 -143L419 -149L425 -154V-154ZM554 -22V-22L561 -16L557 -15L553 -21L554 -22H553L538 -30L511 -39L480 -36L455 -26L419 4L425 -11L423 -15H419L415 -9L411 -11L419 -26L415
-30L409 -26L404 -30L398 -60L386 -71L354 -104L352 -122L367 -129L409 -133L423 -143L469 -158L506 -162L513 -159L517 -162L532 -165L557 -162V-154L554 -152L541 -133L517 -114L513 -115L511 -114V-110L492 -103L463 -110L442 -103V-99L444 -96L462 -99L463
-96L467 -99L469 -96H474L507 -71L480 -74L463 -70L462 -71L459 -70L442 -60L423 -45L419 -34L423 -30L430 -39L449 -55L467 -60L492 -64L518 -55L553 -22H554V-22ZM573 14L576 27L573 40L549 77L536 84V91L528 98H524L507 112L499 119L503 123H518L529 128L532
126L536 128L543 131L561 148L566 172L524 216L506 245L488 304L485 364L474 380L455 354L436 313H438L442 314L459 345L462 343V339L449 313L423 280V270L419 232L411 204L415 193L436 170L455 161L488 138L497 126L494 123L469 128L453 123V119L448 116H444L411
83L375 33L434 14L444 3L442 -1L448 -9L473 -26L506 -27L538 -22L551 -11V-5L573 14V14ZM582 49L587 62L585 65H580L566 68L572 58L582 47V49V49ZM606 35L642 112L661 161H652L637 128L615 87V77L608 72L593 43V35H595L598 33L606 35V35ZM656 123L645 102H649L656
123V123ZM880 3V4L862 33L765 58V60L769 62L809 52L856 43L862 39L866 43L910 60L908 62L872 72L744 104L664 123L652 96L686 84L765 62V60L763 58L649 87L642 73L682 60L880 3V3ZM888 4L989 15L977 24L920 58L872 39L877 18L888 4V4ZM2 295H9L10 299L2 288L9 207L10
193V182L2 249L1 280L2 295V295ZM277 419L280 416L276 389L277 387H280V383L272 387L266 398L277 419V419ZM362 368L381 419L365 368H362V368ZM291 380H298L277 373L291 380V380ZM305 380L302 379L298 380H305V380ZM288 362L291 358L286 362H288V362Z" />
<glyph unicode="&amp;" glyph-name="ampersand" horiz-adv-x="769" d="M471 308H752L637 237Q628 192 613 145Q600 105 580 58T531 -33L569 -99L709 -165H476L451 -117Q412 -143 362 -159T249 -177Q181 -179 133 -155T55 -95T12 -15T2 65Q4 90 11 122T40 188T102
256T211 322L201 342Q182 376 169 412Q157 442 149 478T142 549Q144 582 160 612T202 664T266 698T347 711Q401 711 434 694T486 651T512 593T519 529Q519 493 503 460T463 399T408 347T349 306L498 26Q509 44 521 67T544 118T561 175T566 237L471 308ZM286 -104Q307
-104 324 -100T357 -89T388 -74T419 -56L243 265Q220 254 197 238T156 201T125 153T109 91Q106 59 115 25T145 -38T201 -85T286 -104ZM261 540Q261 520 266 498T279 455T295 413T312 377L321 362Q382 402 416 440T450 534Q450 568 442 589T420 623T389 639T352
644Q323 643 306 633T278 607T265 574T261 540ZM501 -91L415 123L369 151L366 96L501 -91ZM356 231L314 254L305 206L348 185L356 231ZM207 588Q198 575 195 558T191 521T193 481T198 443Q203 415 216 386T248 321L294 290L299 346Q288 357 277 372Q267 385 256
403T234 444Q232 448 227 461T217 493T208 537T207 588ZM53 140L27 66L55 -14L87 66L53 140Z" />
<glyph unicode="&apos;" glyph-name="quotesingle" horiz-adv-x="93" d="M71 702L50 529H16L0 702H71Z" />
<glyph unicode="(" glyph-name="parenleft" horiz-adv-x="296" d="M283 736Q260 717 237 692Q217 671 195 642T155 574Q130 523 114 452T96 290Q94 195 110 118T150 -19Q168 -70 191 -105T234 -164Q258 -191 281 -210L266 -235Q238 -213 208 -186Q182 -163 152
-130T94 -56Q51 7 26 83T0 266Q0 329 10 383T39 482T80 565T128 632Q153 663 177 686T222 725T254 749T267 758L283 736Z" />
<glyph unicode=")" glyph-name="parenright" horiz-adv-x="303" d="M15 758Q15 758 27 750T60 726T104 687T154 632Q179 603 202 566T243 483T271 383T282 266Q282 160 257 84T188 -56Q160 -97 130 -130T74 -186Q44 -213 16 -235L1 -210Q24 -191 48 -164Q68 -141
90 -106T132 -19Q156 40 172 117T186 290Q185 381 169 452T127 574Q109 612 87 641T45 692Q22 717 -1 736L15 758Z" />
<glyph unicode="*" glyph-name="asterisk" horiz-adv-x="812" d="M0 0L406 702L795 0H0ZM203 346L402 4L600 346H203Z" />
<glyph unicode="+" glyph-name="plus" horiz-adv-x="547" d="M50 304V356H248V551H300V356H495V304H300V103H248V304H50V304Z" />
<glyph unicode="," glyph-name="comma" horiz-adv-x="172" d="M40 86H123V0Q122 -32 112 -53T88 -87Q73 -102 53 -111L40 -95Q52 -86 61 -72Q69 -61 75 -43T79 0H40V86Z" />
<glyph unicode="-" glyph-name="hyphen" horiz-adv-x="346" d="M58 292L307 291V210H58V292Z" />
<glyph unicode="." glyph-name="period" horiz-adv-x="170" d="M40 86H123V0H40V86Z" />
<glyph unicode="/" glyph-name="slash" horiz-adv-x="416" d="M352 701H399L48 -165H1L352 701Z" />
<glyph unicode="0" glyph-name="zero" horiz-adv-x="593" d="M512 532Q538 478 551 409T565 263Q565 219 560 175T544 88T519 9T486 -57Q448 -118 396 -143T283 -168Q223 -168 166 -137T70 -45Q30 13 15 94T0 263Q0 343 12 414T57 543Q96 615 156 657T283 699Q353
699 412 655T512 532ZM281 -118Q311 -118 339 -88T390 -6T426 115T440 263Q440 342 426 413T390 538T339 622T280 654Q251 654 222 623T170 538T133 414T119 263Q119 185 133 116T171 -6T223 -88T281 -118ZM182 628Q147 607 127 580T90 531Q84 522 77 509T62 479T50
448T44 419L70 371L101 419Q105 452 108 476T118 518Q122 530 128 545T143 575T161 604T182 628ZM35 286L62 247L91 286L62 324L35 286ZM194 -113Q183 -103 170 -87T145 -50T123 -9T109 30Q102 61 99 91T96 148L65 196L39 148Q42 122 51 87T77 20Q102 -29 130 -60T194
-113ZM379 628Q389 618 399 604T417 575T432 545T443 518Q449 501 452 477T460 419L491 371L517 419Q515 432 511 447T499 479T485 508T471 531Q455 553 435 580T379 628ZM499 324L470 286L499 247L526 286L499 324ZM367 -113Q402 -92 430 -61T484 20Q500 51 509
86T522 148L496 196L465 148Q465 122 462 92T452 30Q448 12 438 -9T416 -50T391 -86T367 -113Z" />
<glyph unicode="1" glyph-name="one" horiz-adv-x="500" d="M2 522L191 699H276V-79L413 -165H25L159 -85V569L2 522ZM191 138L220 -99L250 138L221 185L191 138ZM189 382L219 334L250 382L220 613L189 382ZM219 300L190 262L219 223L250 262L219 300Z" />
<glyph unicode="2" glyph-name="two" horiz-adv-x="599" d="M82 640Q101 660 130 676Q155 690 194 701T290 714Q352 715 391 693T452 636T483 560T494 482Q496 428 483 380T452 293T414 226T384 185Q347 136 313 92T252 15Q220 -25 192 -58H432L580 49L495 -164H12Q37
-142 71 -105Q100 -73 142 -24T241 99Q290 162 318 215T362 311T382 385T387 434Q388 462 383 492T366 549T331 593T274 612Q249 613 231 608T202 598Q188 591 179 583Q127 536 87 500Q70 484 54 469T25 443T6 424T-1 417Q0 417 6 433T22 473T41 527T61 580T76
622T82 640ZM185 -82L125 -112L185 -141L435 -111L185 -82ZM212 655Q248 657 283 655T345 634Q367 620 378 599T401 551L447 519L450 569Q443 584 432 599T409 626T384 648T361 661Q335 670 296 671T212 655ZM442 479L413 441L442 402L473 441L442 479Z" />
<glyph unicode="3" glyph-name="three" horiz-adv-x="545" d="M56 609Q74 635 103 656Q128 674 166 689T261 707Q317 709 359 695T430 654T472 594T485 520Q483 454 460 413T410 349Q378 322 338 308Q387 293 426 263Q442 250 458 233T486 194T505 144T512 82Q511
3 486 -46T424 -124T344 -163T261 -172Q210 -171 174 -165T111 -150Q81 -141 60 -129L1 43L157 -92Q171 -96 188 -100Q202 -103 220 -105T258 -107Q278 -107 302 -96T348 -62T384 -7T399 72Q399 115 389 147T363 201T325 238T282 261Q230 280 165 275Q168 288 172
299Q174 304 175 308T177 316Q178 320 179 324Q197 324 227 328T288 350T342 401T371 493Q375 523 368 549T346 596T310 630T263 646Q231 648 213 644T184 634Q173 627 169 617L7 439L56 609ZM425 588L399 514L427 434L459 514L425 588ZM452 152L426 78L454 -2L486
78L452 152Z" />
<glyph unicode="4" glyph-name="four" horiz-adv-x="636" d="M484 700V123H568Q568 123 565 112T556 88T547 63T541 52H484V-95L605 -165H235L369 -93V52H1V109L375 700H484ZM92 124H369V572L92 124ZM401 138L430 -99L460 138L431 185L401 138ZM399 382L429 334L460
382L430 613L399 382ZM429 300L400 262L429 223L460 262L429 300Z" />
<glyph unicode="5" glyph-name="five" horiz-adv-x="556" d="M435 700L526 471L355 596H88V352Q104 371 129 387Q149 401 180 411T254 422Q320 422 370 397T455 333T508 244T530 144Q535 60 515 1T459 -97T380 -153T293 -172Q231 -174 186 -167T111 -151Q76 -140
51 -126L0 51L158 -95Q170 -103 186 -108Q200 -113 218 -116T261 -118Q294 -116 322 -102T372 -60T405 8T419 105Q420 174 405 222T365 300T306 345T237 359Q198 359 169 342T121 304T91 266T80 248Q72 259 62 264T43 272Q32 275 22 276V700H435ZM469 211L443 137L471
57L503 137L469 211ZM136 678L88 648L136 619L385 649L136 678Z" />
<glyph unicode="6" glyph-name="six" horiz-adv-x="620" d="M359 481L411 604Q402 617 390 627Q379 635 362 642T319 650Q293 650 262 638T204 591T160 496T144 339Q143 338 150 344T171 359T204 380T245 401T293 417T346 422Q392 420 437 400T517 344T573 257T595
143Q595 72 573 13T513 -88T425 -153T316 -175Q259 -174 203 -151T101 -76T29 63T1 277Q1 365 22 443T84 580T183 674T316 712Q362 713 397 703T457 676T499 636T527 592L359 481ZM144 118Q144 72 158 29T197 -47T250 -101T310 -121Q341 -121 371 -101T425 -48T463
29T478 119Q478 165 463 208T423 286T368 341T307 362Q276 362 247 341T195 286T158 207T144 118ZM214 645Q193 634 175 620T142 591T114 561T95 534Q89 525 82 510T68 477T56 442T48 412L71 364L108 412Q110 428 110 439T112 462T115 487T125 521Q129 533 139
550T161 585T188 619T214 645ZM31 281L62 241L93 281L62 319L31 281ZM203 -113Q178 -93 154 -53T113 28Q102 57 102 87T103 143L68 191L42 143Q44 130 48 112T58 75T73 36T91 1Q113 -34 137 -63T203 -113ZM530 213L499 139L532 59L570 139L530 213Z" />
<glyph unicode="7" glyph-name="seven" horiz-adv-x="676" d="M24 -164L490 644H170L0 490L85 700H649L157 -166L24 -164ZM379 398L376 343L428 366L527 606L379 398ZM312 282L314 232L359 249V300L312 282ZM134 -83L290 132L287 186L243 164L134 -83Z" />
<glyph unicode="8" glyph-name="eight" horiz-adv-x="602" d="M-3 77Q-3 115 7 150T39 215T94 267T175 300Q111 322 73 371T35 491Q35 539 50 579T97 648T177 695T290 713Q342 714 388 700T468 659T522 589T542 491Q542 421 506 372T411 299Q450 288 482 267T536
216T570 151T582 77Q582 24 562 -21T503 -101T411 -154T290 -174Q219 -174 165 -154T73 -101T16 -22T-3 77ZM107 73Q107 29 123 -9T166 -74T225 -115T292 -128Q325 -127 356 -110T413 -65T454 -2T470 73Q470 112 455 147T414 209T357 250T292 266Q257 266 224 251T165
210T123 149T107 73ZM144 486Q144 453 154 423T184 371T231 336T292 323Q322 323 348 336T394 371T424 423T435 486Q435 520 424 551T394 607T348 647T291 662Q257 662 230 647T183 608T154 552T144 486ZM521 152L495 78L523 -2L555 78L521 152ZM51 152L20 78L53
-2L85 78L51 152ZM485 567L459 493L487 413L519 493L485 567ZM85 569L59 495L87 415L119 495L85 569Z" />
<glyph unicode="9" glyph-name="nine" horiz-adv-x="620" d="M156 55L104 -68Q117 -84 138 -96Q156 -107 184 -115T255 -122Q286 -121 320 -107T384 -58T432 39T450 197Q451 198 435 185T391 156T325 126T248 114Q201 115 157 135T77 192T21 279T-1 393Q-1 463
21 522T81 624T169 689T278 711Q335 710 391 687T492 612T565 473T593 259Q593 170 569 92T500 -44T395 -138T260 -176Q213 -178 169 -168T89 -140T26 -100T-12 -56L156 55ZM450 418Q450 464 436 507T397 583T344 637T284 657Q253 657 223 637T169 584T131 507T116
417Q116 371 131 328T171 250T226 195T287 174Q318 174 347 195T399 250T436 329T450 418ZM380 -109Q401 -99 419 -85T452 -55T479 -25T499 2Q505 11 512 26T526 59T538 94T546 124L523 172L486 124Q484 107 484 96T482 74T479 49T469 15Q465 3 455 -14T433 -49T406
-83T380 -109ZM563 255L532 295L501 255L532 217L563 255ZM391 649Q416 629 440 589T481 508Q492 479 492 449T491 393L526 345L552 393Q550 406 546 424T536 461T521 500T503 535Q481 570 457 599T391 649ZM64 323L95 397L62 477L24 397L64 323Z" />
<glyph unicode=":" glyph-name="colon" horiz-adv-x="185" d="M48 86H131V0H48V86ZM48 461H131V375H48V461Z" />
<glyph unicode=";" glyph-name="semicolon" horiz-adv-x="174" d="M42 86H125V0Q124 -32 114 -53T90 -87Q75 -102 55 -111L42 -95Q54 -86 63 -72Q71 -61 77 -43T81 0H42V86ZM42 460H125V374H42V460Z" />
<glyph unicode="&lt;" glyph-name="less" horiz-adv-x="584" d="M527 489L118 325L527 159V104L61 298V351L527 542V489Z" />
<glyph unicode="=" glyph-name="equal" horiz-adv-x="529" d="M58 292H489V245H58V292ZM58 459H489V412H58V459Z" />
<glyph unicode="&gt;" glyph-name="greater" horiz-adv-x="586" d="M59 542L525 351V298L59 104V159L468 325L59 489V542Z" />
<glyph unicode="?" glyph-name="question" horiz-adv-x="529" d="M59 660Q73 676 102 687Q127 697 169 705T277 713Q344 712 386 690T454 637T489 574T502 521Q505 491 497 459T470 396T422 336T355 286Q278 241 233 201T186 134Q185 121 189 111T198 93Q203 84
211 76Q193 64 179 55Q167 47 157 41T147 35Q120 64 112 93T116 155T161 224T250 305Q299 344 326 369T367 416T385 458T392 509Q393 530 384 556T357 606T313 646T255 661Q223 659 202 654T169 641Q155 633 148 624L-4 478L59 660ZM148 -23H250V-166H148V-23ZM443
593L417 519L445 439L477 519L443 593Z" />
<glyph unicode="@" glyph-name="at" horiz-adv-x="721" d="M119 -105Q96 -131 67 -153T4 -185Q2 -152 17 -119T49 -57L234 175L287 239L417 401Q422 408 431 409T447 416Q472 438 492 463T531 514Q517 516 514 529T503 553Q492 552 483 544T471 537L437 568Q446
577 456 579T478 582T502 580T525 578L557 547L567 563Q569 558 572 559T578 560Q604 592 627 621T675 686Q680 687 686 690T695 698Q701 700 705 697T711 688Q703 686 704 677T701 662H695L606 553V547Q604 548 604 547T602 545Q610 528 591 521L630 494Q638 474
644 452T642 406Q641 407 628 415T603 433Q605 441 608 449T609 467Q604 471 597 471T583 472T571 476T564 487Q553 470 539 455T512 423T491 389T482 349L401 247L119 -105V-105ZM119 15Q104 -5 87 -24T56 -62T37 -100T41 -138Q56 -137 69 -133T95 -120L401 260L476
355Q479 357 479 362T479 370Q479 386 491 404T517 440T545 473T563 500L544 493Q538 498 542 502T544 514L492 449Q474 431 461 421T440 407T428 400T422 396L119 15V15Z" />
<glyph unicode="A" glyph-name="A" horiz-adv-x="798" d="M456 -165L550 -91L475 238H277L190 -96L291 -165H-1L119 -94L319 629L170 700H475L683 -91L798 -165H456ZM462 294L383 617L295 294H462ZM531 140L614 -84L586 154L548 193L531 140ZM471 376L512 337L528
390L443 607L471 376ZM520 304L501 260L538 229L555 273L520 304Z" />
<glyph unicode="B" glyph-name="B" horiz-adv-x="647" d="M379 281Q446 276 499 251Q521 240 542 225T580 188T605 137T614 70Q612 16 596 -23T550 -90Q518 -119 470 -134T376 -157Q322 -165 265 -165H0L125 -99V629L7 700H319Q333 700 356 697T405 686T457 664T505
627T541 571T557 492Q558 457 551 430T532 382T504 344T471 317Q431 291 379 281ZM243 313Q305 311 353 329Q374 336 393 348T427 380T450 425T457 488Q455 519 446 542T421 582T386 610T347 629Q300 646 243 646V313ZM505 79Q501 130 473 164T403 226Q382 238
355 242T301 248Q271 249 240 246V-107Q270 -108 300 -105Q326 -103 353 -99T402 -83Q424 -72 444 -58T478 -25T500 18T505 76V79ZM156 145L182 -92L213 145L185 192L156 145ZM154 389L184 341L213 389L183 620L154 389ZM184 307L155 269L184 230L211 269L184 307ZM501
561L475 487L503 407L535 487L501 561ZM553 158L527 72L555 -25L587 72L553 158Z" />
<glyph unicode="C" glyph-name="C" horiz-adv-x="635" d="M608 47L548 -116Q526 -131 494 -143Q467 -154 428 -162T335 -171Q300 -171 265 -163T196 -140T132 -100T79 -45Q35 12 18 94T0 267Q0 348 15 419T65 550Q87 586 118 615T184 664T257 695T335 708Q401
710 442 703T507 686Q534 675 548 660L611 552L443 641Q431 647 406 649T360 650Q323 649 283 630T208 566T151 448T128 267Q127 168 148 94T204 -28T281 -100T366 -120Q377 -119 389 -117T414 -110T435 -102T451 -92L608 47ZM204 628Q169 607 142 580T99 531Q93
522 85 509T70 479T56 448T49 419L75 371L106 419Q110 452 115 476T127 518Q131 530 139 545T159 575T181 604T204 628ZM40 286L67 247L96 286L67 324L40 286ZM198 -87Q177 -67 154 -31T118 40Q106 75 104 98T101 148L70 196L44 148Q47 122 60 88T93 24Q113 -7
138 -36T198 -87Z" />
<glyph unicode="D" glyph-name="D" horiz-adv-x="611" d="M591 307Q598 176 562 72Q547 28 520 -14T451 -90T350 -144T209 -165H4L80 -103V636L0 700H194Q302 700 388 660Q425 643 460 615T524 545T570 444T591 307ZM333 -86Q351 -76 376 -56T425 6T465 116T478
289Q478 371 459 441Q451 471 438 500T404 556T355 603T288 634Q281 636 268 637T242 638T215 639T195 639V-101Q226 -102 253 -100Q276 -98 299 -96T333 -86ZM107 145L133 -92L164 145L136 192L107 145ZM105 389L135 341L164 389L134 620L105 389ZM135 307L106
269L135 230L162 269L135 307ZM400 614Q410 604 422 590T445 561T464 531T477 504Q483 487 488 463T498 405L529 357L555 405Q553 418 548 433T535 465T519 494T505 517Q489 539 462 566T400 614ZM536 323L507 285L536 246L563 285L536 323ZM405 -77Q440 -56 465
-27T510 34Q529 63 542 97T559 158L533 206L502 158Q502 132 500 109T485 50Q473 15 450 -21T405 -77Z" />
<glyph unicode="E" glyph-name="E" horiz-adv-x="647" d="M0 700H571L626 495L484 644H221V294H398L467 428V107L400 238H221V-100H491L627 36L571 -165H2L102 -97V629L0 700ZM133 149L159 -88L190 149L162 196L133 149ZM131 393L161 345L190 393L160 624L131
393ZM161 311L132 273L161 234L188 273L161 311Z" />
<glyph unicode="F" glyph-name="F" horiz-adv-x="615" d="M0 700H571L613 495L484 644H221V294H398L467 428V107L400 238H221V-100L318 -165H2L102 -97V629L0 700ZM133 149L159 -88L190 149L162 196L133 149ZM131 393L161 345L190 393L160 624L131 393ZM161 311L132
273L161 234L188 273L161 311Z" />
<glyph unicode="G" glyph-name="G" horiz-adv-x="763" d="M751 242L633 174V-108Q608 -127 570 -142Q538 -155 488 -165T369 -175Q270 -175 200 -140T85 -44T21 96T0 267Q0 354 23 432T92 572T207 670T369 712Q438 715 480 708T548 691Q577 680 591 663L635 483L463
651Q456 654 444 655T418 657T390 658T364 657Q310 654 268 623T196 540T150 418T134 267Q134 186 149 117T194 -3T266 -86T365 -121Q391 -123 408 -123T441 -121T474 -110T518 -85V173L395 242H751ZM210 619Q175 598 148 571T105 522Q99 513 91 500T76 470T62
439T55 410L81 362L112 410Q116 443 121 467T133 509Q137 521 145 536T165 566T187 595T210 619ZM40 279L67 240L96 279L67 317L40 279ZM204 -93Q183 -73 160 -37T124 34Q112 69 110 92T107 142L76 190L50 142Q53 116 66 82T99 18Q119 -13 144 -42T204 -93ZM545
-35L575 -83L604 -35L574 196L545 -35Z" />
<glyph unicode="H" glyph-name="H" horiz-adv-x="773" d="M667 629V-83L773 -165H451L556 -85V238H234V-93L348 -165H-1L118 -93V629L-1 700H347L234 629V294H556V629L450 700H772L667 629ZM150 138L176 -99L207 138L179 185L150 138ZM148 382L178 334L207 382L177
613L148 382ZM178 300L149 262L178 223L205 262L178 300ZM583 138L609 -99L640 138L612 185L583 138ZM581 382L611 334L640 382L610 613L581 382ZM611 300L582 262L611 223L638 262L611 300Z" />
<glyph unicode="I" glyph-name="I" horiz-adv-x="355" d="M240 -93L354 -165H-1L118 -93V629L-1 700H353L240 629V-93ZM150 138L179 -99L209 138L180 185L150 138ZM148 382L178 334L209 382L179 613L148 382ZM178 300L149 262L178 223L209 262L178 300Z" />
<glyph unicode="J" glyph-name="J" horiz-adv-x="516" d="M2 -79Q-7 -41 8 -15T62 12Q75 12 86 7T106 -9T118 -32T116 -60Q108 -86 116 -102T159 -120Q174 -120 186 -113T208 -94T225 -65T237 -32Q248 8 254 58V637L141 700H503L380 635V78Q381 7 359 -48Q350
-72 335 -94T295 -134T238 -163T161 -174Q122 -174 95 -164T48 -140T18 -109T2 -79ZM243 -109Q270 -92 292 -63T328 0Q339 26 344 56T349 126L321 174L292 126Q292 100 294 74T293 20Q288 -16 277 -48T243 -109ZM320 612L290 381L319 333L349 381L320 612ZM292
261L319 222L348 261L319 299L292 261Z" />
<glyph unicode="K" glyph-name="K" horiz-adv-x="715" d="M186 -97L280 -165H-30L72 -93V643L-21 702H272L186 643V338L432 643L364 702H610L507 643L263 336L600 -95L697 -165H370L465 -102L186 250V-97ZM103 145L129 -92L160 145L132 192L103 145ZM101 389L131
341L160 389L130 620L101 389ZM131 307L102 269L131 230L158 269L131 307ZM247 223L509 -63L292 258L228 294L247 223Z" />
<glyph unicode="L" glyph-name="L" horiz-adv-x="615" d="M1 -165L107 -112V629L1 700H311L221 629V-109H448L614 41L549 -165H1ZM137 138L166 -99L196 138L167 185L137 138ZM135 382L165 334L196 382L166 613L135 382ZM165 300L136 262L165 223L196 262L165 300Z" />
<glyph unicode="M" glyph-name="M" horiz-adv-x="957" d="M-2 -165L98 -104V639L-3 700H202L470 78L739 700H940L831 639V-108L934 -165H616L711 -108V458L428 -165L176 458V-102L266 -165H-2ZM746 138L775 -99L805 138L776 185L746 138ZM744 382L774 334L805
382L775 613L744 382ZM774 300L745 262L774 223L805 262L774 300ZM331 172L447 -38L384 192L341 226L331 172ZM236 396L283 362L291 417L173 619L236 396ZM296 331L283 285L325 260L335 305L296 331Z" />
<glyph unicode="N" glyph-name="N" horiz-adv-x="735" d="M17 -165L141 -90V628L2 700H202L585 152V629L489 700H733L650 629V-191L213 486V-91L313 -165H17ZM455 183L609 0L503 215L454 239L455 183ZM320 385L371 362L369 418L216 594L320 385ZM390 334L387 286L432
269L433 316L390 334Z" />
<glyph unicode="O" glyph-name="O" horiz-adv-x="759" d="M640 540Q672 486 690 416T708 267Q708 223 701 178T681 90T650 9T609 -58Q561 -121 495 -146T354 -172Q279 -172 208 -140T86 -46Q38 13 19 94T0 267Q0 348 16 421T72 551Q96 588 127 617T194 668T271
700T354 711Q441 711 515 666T640 540ZM353 -118Q410 -117 452 -87T522 -4T564 117T578 267Q578 348 563 419T519 543T447 627T350 657Q299 656 258 625T187 542T142 419T126 267Q126 187 141 117T186 -5T257 -88T353 -118ZM203 619Q168 598 141 571T98 522Q92
513 84 500T69 470T55 439T48 410L74 362L105 410Q109 443 114 467T126 509Q130 521 138 536T158 566T180 595T203 619ZM33 279L60 240L89 279L60 317L33 279ZM197 -93Q176 -73 153 -37T117 34Q105 69 103 92T100 142L69 190L43 142Q46 116 59 82T92 18Q112 -13
137 -42T197 -93ZM501 619Q511 609 523 595T546 566T565 536T578 509Q584 492 589 468T599 410L630 362L656 410Q654 423 649 438T636 470T620 499T606 522Q590 544 563 571T501 619ZM644 317L615 279L644 240L671 279L644 317ZM507 -93Q542 -72 567 -43T612 18Q631
47 644 81T661 142L635 190L604 142Q604 116 602 93T587 34Q575 -1 552 -37T507 -93Z" />
<glyph unicode="P" glyph-name="P" horiz-adv-x="563" d="M225 306Q291 306 343 325Q365 333 386 346T422 378T447 424T455 487Q453 518 443 541T416 582T379 610T337 629Q287 646 225 646V306ZM-1 -165L108 -103V636L-2 700H285Q299 700 324 697T378 686T438
664T492 627T533 571T550 492Q552 432 534 391T486 323T419 281T346 259T277 251T224 251V-103L334 -165H-1ZM137 150L166 -87L196 150L167 197L137 150ZM135 394L165 346L196 394L166 625L135 394ZM165 312L136 274L165 235L196 274L165 312ZM499 557L473 483L501
403L533 483L499 557Z" />
<glyph unicode="Q" glyph-name="Q" horiz-adv-x="775" d="M-12 -291Q7 -253 32 -225T85 -178T143 -149T201 -136Q169 -119 140 -97T86 -46Q38 13 19 94T0 267Q0 348 16 421T72 551Q96 588 127 617T194 668T271 700T354 711Q441 711 515 666T640 540Q672 486 690
416T708 267Q708 223 701 178T681 90T650 9T609 -58Q579 -97 547 -119T470 -154Q494 -159 510 -168T547 -188Q563 -196 579 -200T609 -205Q625 -207 639 -205L769 -100Q751 -137 735 -172Q721 -202 707 -235T682 -292Q632 -298 596 -289T527 -265T458 -231T372
-199Q325 -187 273 -188T169 -203T73 -241T-5 -297L-12 -291ZM353 -118Q410 -117 452 -87T522 -4T564 117T578 267Q578 348 563 419T519 543T447 627T350 657Q299 656 258 625T187 542T142 419T126 267Q126 187 141 117T186 -5T257 -88T353 -118ZM507 -93Q542 -72
567 -43T612 18Q631 47 644 81T661 142L635 190L604 142Q604 116 602 93T587 34Q575 -1 552 -37T507 -93ZM197 -93Q176 -73 153 -37T117 34Q105 69 103 92T100 142L69 190L43 142Q46 116 59 82T92 18Q112 -13 137 -42T197 -93ZM203 619Q168 598 141 571T98 522Q92
513 84 500T69 470T55 439T48 410L74 362L105 410Q109 443 114 467T126 509Q130 521 138 536T158 566T180 595T203 619ZM501 619Q511 609 523 595T546 566T565 536T578 509Q584 492 589 468T599 410L630 362L656 410Q654 423 649 438T636 470T620 499T606 522Q590
544 563 571T501 619ZM33 279L60 240L89 279L60 317L33 279ZM644 317L615 279L644 240L671 279L644 317Z" />
<glyph unicode="R" glyph-name="R" horiz-adv-x="758" d="M4 -165L117 -100V624L-2 700H336Q350 700 373 697T422 686T475 664T523 627T559 571T575 492Q577 442 563 406T526 344T474 303T418 279T367 267T332 264L617 -97L744 -165H511L232 209V-100L345 -165H4ZM236
313Q306 311 360 329Q383 336 404 348T442 380T468 425T475 487Q473 521 462 546T433 589T394 618T351 636Q300 651 236 646V313ZM148 150L177 -87L207 150L178 197L148 150ZM146 394L176 346L207 394L177 625L146 394ZM176 312L147 274L176 235L207 274L176 312ZM287
184L536 -86L333 219L269 253L287 184ZM519 557L493 483L521 403L553 483L519 557Z" />
<glyph unicode="S" glyph-name="S" horiz-adv-x="547" d="M364 638Q325 647 289 651Q258 654 227 650T176 629Q138 593 143 557T179 481T258 400T355 312Q410 261 442 218T492 138T514 68T519 6Q518 -55 490 -92T421 -149T338 -175T265 -182Q199 -183 156 -175T87
-156Q57 -145 41 -130L-29 68L140 -93Q158 -106 181 -114Q201 -121 227 -124T283 -122Q311 -116 334 -107T374 -82T400 -39T409 27Q409 54 391 85T348 148T293 208T242 256Q207 285 168 315T94 380T36 455T12 547Q11 583 29 614T81 669T159 706T259 720Q313 720
352 713T418 697Q448 686 468 673L520 495L364 638ZM73 595Q74 554 83 517T103 455Q107 445 115 431T133 403T154 376T176 355L230 354L204 404Q177 424 159 441T128 472Q120 482 111 497T95 529T82 563T73 595ZM268 319L276 272L324 265L315 312L268 319ZM466
-53Q475 -13 471 26T459 100Q451 134 436 167T403 221L351 236L364 180Q382 162 397 144T430 93Q438 76 445 57T456 18T463 -20T466 -53Z" />
<glyph unicode="T" glyph-name="T" horiz-adv-x="830" d="M3 504L100 700H745L830 504L654 643H480V-98L580 -165H258L363 -100V643H179L3 504ZM394 159L420 -78L451 159L423 206L394 159ZM392 403L422 355L451 403L421 634L392 403ZM422 321L393 283L422 244L449
283L422 321Z" />
<glyph unicode="U" glyph-name="U" horiz-adv-x="731" d="M324 702L229 644V66Q230 18 248 -19Q255 -35 267 -50T297 -78T340 -97T398 -104Q428 -104 450 -97T489 -77T515 -48T533 -15Q549 25 549 75V642L465 702H714L624 644V82Q626 13 600 -42Q589 -65 572 -87T527
-127T463 -154T377 -165Q321 -165 280 -154T208 -126T158 -86T125 -39Q96 16 96 86V641L-1 702H324ZM134 404L164 356L193 404L163 635L134 404ZM164 322L135 284L164 245L191 284L164 322ZM240 -86Q217 -58 206 -26T190 43Q186 70 188 96T191 149L162 197L134
149Q134 109 139 79T155 23Q169 -11 191 -40T240 -86Z" />
<glyph unicode="V" glyph-name="V" horiz-adv-x="751" d="M-3 702L325 701L226 641L416 47L556 640L451 702H742L629 639L431 -165H365L102 638L-3 702ZM291 162L392 -55L345 180L304 216L291 162ZM212 392L256 356L267 411L165 620L212 392ZM266 324L251 279L291
251L304 296L266 324Z" />
<glyph unicode="W" glyph-name="W" horiz-adv-x="1140" d="M-26 700H319L201 642L384 54L537 642L436 700H747L641 642L822 75L966 643L859 700H1160L1043 642L825 -165H757L565 487L392 -165H320L77 642L-26 700ZM254 162L347 -59L308 178L269 215L254 162ZM183
394L226 357L239 411L144 624L183 394ZM235 324L218 280L257 251L271 295L235 324ZM699 162L792 -59L753 178L714 215L699 162ZM628 394L671 357L684 411L589 624L628 394ZM680 324L663 280L702 251L716 295L680 324Z" />
<glyph unicode="X" glyph-name="X" horiz-adv-x="769" d="M6 702H308L231 643L364 401L495 644L422 700H668L562 644L398 340L633 -102L756 -165H387L499 -105L341 225L184 -96L289 -165H-4L115 -96L305 278L113 642L6 702ZM410 147L568 -93L460 174L413 202L410
147ZM294 360L343 332L344 388L181 624L294 360ZM358 302L351 255L395 234L400 281L358 302Z" />
<glyph unicode="Y" glyph-name="Y" horiz-adv-x="663" d="M247 702L173 644L340 354L497 644L419 702H650L564 644L369 290V-96L460 -165H158L260 -93V286L61 644L-28 702H247ZM287 151L321 -120L346 151L317 198L287 151ZM230 384L278 354L281 409L124 629L230
384ZM315 317L286 279L315 240L346 279L315 317Z" />
<glyph unicode="Z" glyph-name="Z" horiz-adv-x="719" d="M197 -105H566L721 31L644 -165L26 -164L540 644H187L0 490L94 700H715L197 -105V-105ZM581 606L418 398L414 343L471 366L581 606V606ZM395 300L344 282L346 232L395 249V300V300ZM268 164L148 -83L319
132L316 186L268 164V164Z" />
<glyph unicode="[" glyph-name="bracketleft" horiz-adv-x="251" d="M-1 762H225V718H88V-187H225V-233H-1V762Z" />
<glyph unicode="\" glyph-name="backslash" horiz-adv-x="421" d="M399 -165H352L1 701H48L399 -165Z" />
<glyph unicode="]" glyph-name="bracketright" horiz-adv-x="256" d="M225 -233H-1V-187H136V718H-1V762H225V-233Z" />
<glyph unicode="^" glyph-name="asciicircum" horiz-adv-x="789" d="M761 469L766 455L734 467L682 470L655 467L633 459L614 445L603 435L597 431L574 397L560 372L556 369L551 360L545 349L512 316V314L523 310L484 287L483 285V282L491 269L492 253L498 230L488
204L482 194L464 190L459 188L451 193L433 190L428 183V178L408 150L400 116L390 100V98L399 86L400 72L404 55L429 51L468 44L488 42L556 32L560 31L562 24L577 13L585 7L591 -3L609 -23L639 -80L646 -101L659 -125L657 -132L662 -145L660 -146V-149L662 -150L673
-149L675 -151L673 -155H663L662 -156L663 -166L662 -168L657 -156L574 -169L571 -172L536 -175L494 -178L489 -179L468 -178H464L458 -174L446 -170L428 -158L423 -156L413 -158L350 -107L309 -75L304 -71L287 -75L252 -73L241 -69L226 -53L221 -42L210 -30L201
-28L194 -21L193 -13L190 -7L187 -5L183 -2H179L129 -49L122 -52L108 -55L93 -62L71 -66L31 -78L29 -80L25 -77L5 -82L4 -81L6 -76L9 -60L16 -46L24 -34L42 -13V-10L86 23L94 28L120 66L143 111L135 127V130V131H131L123 120L112 93L91 62L57 49L54 46L45 44L32
39L25 37H24L26 57L37 95L40 103V110L37 113L32 119L28 124L29 136L37 158V178V181L44 184L79 221L83 227V233L113 250L170 272L172 276L179 279L207 302L210 308L222 327L233 361V362L210 365L197 361H192L190 362L202 385L205 391L217 403H221H222V405L221 406L189
403H184H182L174 419L173 429L169 431L163 454L161 479L157 500V503L156 504L164 551L188 614L221 693L227 700L231 701L251 700L285 693L287 690L301 689L335 671L359 653L362 651H365L367 652L398 614L399 608L404 602L403 594L398 582L394 576V574L395 573L416
578L439 579L466 582L500 581L527 582L536 579L580 573L620 559L637 549H639L640 551L634 558L644 556L660 546H668L720 513L732 504L734 500V495L761 469V469ZM211 411L244 415V423H242L241 421L236 423L231 420L218 419L205 415L189 417L187 420L181 444L175
473L172 494L173 506L172 511L173 522L177 549L194 598L195 604L199 612L210 642L227 676V681L231 684H235L267 681L305 666L336 648L382 608V603L372 579L364 564H365L372 568L380 569V577L383 579L395 602L389 614L378 630L362 644L347 656L314 679L290 684L265
689L236 693L228 695L224 691L212 659L198 627L181 573L167 527L166 518L164 483L172 452L178 437L179 428L182 424L181 420L183 411H189L202 413L211 411V411ZM244 524L233 526L231 524L230 513L231 511L242 516L244 519V524V524ZM235 538H238V540H235V538V538ZM239
552L255 568L265 574L251 581L244 573L239 574L230 568L226 561L223 549H226L228 556L239 566L241 563L239 559L236 549H239V551V552V552ZM217 508L215 511V514L218 518L221 527L218 528H212L205 508L207 506L216 498L218 500V506L217 508V508ZM230 429L239 449L235
452L223 459L208 425H215L230 429V429ZM242 443L239 436L236 429L244 430V434L247 440L246 444L242 445V443V443ZM210 441L217 463L216 464L204 467L202 460L198 454L194 440L190 434V428L192 424H197L199 425L210 441V441ZM190 493L182 477H183L197 488L193 493H190V493ZM181
484L184 497L178 500L181 484V484ZM198 469L183 470L187 448L189 443L198 469V469ZM195 498L208 493V497L199 506L201 517H198L194 522L181 527L179 523L178 509L181 506H187L195 498V498ZM192 546L187 538V533L198 527L202 540L197 546L199 548L201 569L210 579L211
587L216 596L226 594L228 601L231 610L218 615L213 602L210 588L202 577L197 564L192 546V546ZM188 556L205 598L216 618L210 621L194 578L188 556V556ZM212 561L221 564L222 572L212 573L211 572L210 563L211 561H212V561ZM216 556H211L208 546L210 544H212L216
547V556V556ZM217 579L230 577L231 578V581L226 586H222L217 584V579V579ZM205 528L204 526L205 527V528V528ZM215 534L224 539V542H222L218 539H213V534H215V534ZM276 602V607L275 604L270 610L269 612L256 613L251 610L239 581H244V582L256 601L269 603L271 601H275L276
602V602ZM278 584L276 577L280 569H282L284 572L285 569H291L293 572V578V578L278 584V584ZM273 588L265 594H261L260 586L270 581L271 582L273 588V588ZM239 601L241 604L239 607H236L235 601L232 597H235L239 601V601ZM252 556L249 532L250 531L261 519L282 523L291
526L301 527L310 531L314 534L320 538V540H319L301 547L290 556L277 563L267 566L261 564L252 556V556ZM296 566L298 564L313 559L314 561L316 567H315L314 568L310 572L300 574L296 566V566ZM319 558L320 556L336 551V552L327 561H320L319 558V558ZM321 572L336
564L347 558H350L355 566V573L347 581L325 592L314 599L291 610L276 617L249 630L247 628L244 630L218 644L217 642L213 628H218L226 622L246 613L250 617L260 619L270 617L277 610L278 612L281 609L282 603L280 601V597H281L287 592L309 582L321 572V572ZM318
622L326 644H323L321 646L311 650V647L295 615L298 613L310 609L318 622V622ZM330 635L321 621L315 607L330 599L342 621L344 630L342 633L334 638H330V635V635ZM305 648V653H304L298 657L293 659L290 655L280 632L276 625L278 621H281L291 619L296 633L305 648V648ZM271
628L287 663L269 671L252 635L271 627V628V628ZM249 642L262 671L257 676H250L244 673V671L241 664L239 655L233 648V644H235L247 640L249 642V642ZM228 647L239 676L233 677L222 650L228 647V647ZM352 590L363 607L364 612L352 625H347L345 615L336 602L335 594H336L339
592L350 586L352 587V590V590ZM359 590L355 581L360 579V581L369 596L370 604H367L359 590V590ZM201 370L239 375L249 380V383L247 382H244L242 385L257 405L273 417V420H271L266 414L239 405L216 394L208 383L201 370V370ZM252 419L264 421L267 425L266 429H264L262
430L260 435H255L252 419V419ZM172 180V159L177 152L193 144L213 145L221 154V159L215 165L207 180H201L189 179L187 175L184 161L190 160L201 158V161L195 167L194 165L192 160H190L189 161L188 165L194 173H197L210 159L204 150L202 152H183L178 159L182 181L184
184L194 185L193 187H178L172 180V180ZM239 100L218 90L215 85L213 76L217 71L222 67L236 69L239 72V73L277 104L251 109L249 107L239 100V100ZM228 113L230 111L231 113H228V113ZM212 101L208 98H211L215 101H212V101ZM204 100L208 104L216 110L217 109H218V111L201
115L193 113H194L202 107L204 100V100ZM103 238V236L129 224L145 213V208L148 196L147 195V194L152 184L147 127L158 113L169 98L172 106L183 121H188L189 120L204 124L212 120V121L210 127L208 129L194 131L193 130L179 135L169 145L163 173L158 181V188L152 199V204L148
247L156 258H154L138 252L117 245L103 238V238ZM173 81H172V78H173V81V81ZM63 60L71 62L70 64L66 65L40 81L31 44H32L49 51L63 60V60ZM91 73L106 100H104L96 93L88 90L86 87L77 82V77L70 75L57 80L83 65L85 67L91 73V73ZM54 90L58 87L57 90H54V90ZM140 159L143
181L137 198L123 211L111 216L93 221L80 214L58 190L55 181L49 168L45 152L42 144V121L58 113L66 111L83 104L112 134L122 139L140 159V159ZM34 -71L37 -66L35 -63L29 -44L23 -52L17 -62L19 -66L16 -69L15 -76H19L21 -73H26L29 -71H34V-71ZM91 -46V-43L80 -35L78
-28L75 -13L77 -2H73L69 -3L58 -12L51 -10L32 -30V-34L37 -46L42 -60L48 -66V-65L39 -43L40 -42L39 -34L42 -28L45 -31L50 -52L54 -58L73 -55L77 -52H79L84 -53L88 -46H91V-46ZM174 2V4L170 8L166 13L167 15V21L164 24L162 47L163 51L166 65L164 67L162 71L163
86L161 90L153 95H147L106 27L97 18L88 10L84 3L83 -22L97 -40L132 -34L174 2V2ZM178 100L174 86L175 85H177L181 87L178 95L187 107L189 104V101L184 98L183 93H187H188L194 98L197 106H195L194 107L183 109L178 100V100ZM201 78L197 86H194L183 81V78L182 77L177
75L175 65H178L182 69L201 78V78ZM184 28L210 62L207 69H204L195 66L181 58L178 51L175 13L178 10H179L188 3V8L187 10L184 28V28ZM224 49L226 57L216 58L212 51L195 31L198 13L205 -7L208 -21L215 21L224 49V49ZM233 -17L239 -13H235L232 -11L233 -17V-17V-17ZM233
3L239 8V8L235 10V12L232 2V-7L233 3V3ZM259 -60H275L269 -58L262 -52H260L255 -55V-58H256L259 -60V-60ZM285 -62L287 -60H282V-62H285V-62ZM287 -53V-49L278 -43L273 -42L269 -44V-47L275 -53H287V-53ZM282 -35H284V-34H282V-35V-35ZM301 41L316 55L327 57L336
66L352 69L365 66V69L353 73L333 75L310 69L300 62L298 57L280 35L271 26V21V17V17L273 -13L271 17L275 21H276L285 23V24L301 41V41ZM310 21L320 15L315 21H310V21ZM360 -18V-17H359L360 -18V-18ZM374 -105V-94L370 -82L368 -42L369 -78L368 -100L372 -105H374V-105ZM394
-119L398 -121L396 -111L392 -82L394 -119V-119ZM421 -136V-131L418 -119L411 -44L408 -39H407L409 -47L408 -48L416 -121L418 -136H421V-136ZM421 -53V-53V-47V-47V-53V-53ZM655 -150V-148H651L615 -156L655 -150V-150ZM646 -145L651 -142L646 -140L637 -136L634
-134L609 -126L575 -109L564 -100L543 -92L528 -89L523 -86V-82L487 -69L489 -72L487 -75L486 -73L476 -71V-73L477 -86L476 -89H474L473 -88L468 -66L459 -63V-65L467 -101L464 -105H463L457 -96L449 -58L446 -55H442V-60L446 -63L448 -89L451 -104V-134L449 -136L446
-134L442 -111L437 -89L432 -48H429L433 -96L437 -148L453 -156L482 -163L510 -161L605 -150L624 -146L646 -145V-145ZM591 -109L603 -116L619 -122L603 -112L591 -109V-109ZM433 39L365 44L350 49H335L305 31V28H307L326 18L329 13L382 -7L390 -13L429 -34L453
-43L528 -77L554 -89L594 -105L634 -125L646 -132H648V-131L629 -87L605 -44L561 7L538 21H523L510 24L464 33L451 32L433 39V39ZM392 75L374 93L360 106L353 109L350 106H345L338 103L326 100L298 95L293 91L276 85L257 65L241 32L235 12L236 13L241 15H242H244H246V23L255
49L264 62H266L276 72L303 91L305 87L300 82L293 78L271 60L262 47L257 33L251 5H252V12L257 15H260L264 17L262 26L266 33L301 73L314 78L315 77L339 81L359 80L369 75V77L365 81L347 93V95L350 98L352 96L359 93L367 85L380 72L384 67V65L389 60H392L396 58V60L395
69L392 75V75ZM404 154L413 175L409 184L401 195L374 210L350 214L347 213L342 208V199L323 178L319 168L276 121V119H278L280 120L298 124L301 120L290 114L296 113L315 121L323 124L345 121L363 115L370 116L380 107H384V109L388 113L389 118L399 135L404 154V154ZM438
198L442 199L441 213V208L437 204L436 198H438V198ZM446 249L448 257H446V255L442 253L437 250L429 252L428 250L426 252H421L392 250L379 248L350 239L333 230L321 221L277 216L271 214L270 216H269L266 213H262L260 216H261L262 221L269 245L275 276L273 291L275
300L271 303L269 311H266L261 320L260 328L256 340L257 374H255L250 370L242 367L231 337L241 346L242 345V342L232 331L230 322L218 305L193 276H187L177 267L174 244L175 239L174 238L177 218L189 195L198 193L208 189L216 183V178L228 161L230 147H232L244 142L247
138L276 135L301 163L318 183L321 200L320 204L323 207L353 223L374 221L401 214L418 203L424 183L430 216L432 237L436 242L439 238V236L446 249V249ZM287 285V282L285 279H284V274L282 268L284 263L301 241L314 233H319L327 236V238L331 242L335 245L316 255L301
268L295 277L287 285V285ZM320 272L321 271L320 269V266L330 262L339 257L345 252H347V253L342 258V263L331 272L330 276L323 277L320 272V272ZM334 288L335 287H345L359 280L368 279L370 282L365 285H359L354 288L338 291L334 288V288ZM300 233L281 254L277 238L269
219L291 227L305 230L300 233V233ZM476 199V201L471 207L468 216L464 219L463 224L458 249L459 250V255L458 257L459 258V263H457L449 229L451 214L458 199L464 196L476 199V199ZM486 267L480 279L484 258L487 224L484 214H483L478 218L474 229L471 253L472 274L471
276L469 247L473 223L480 205H483L484 207L487 219L491 229L486 267V267ZM487 294L507 305H494L489 300L487 294V294ZM532 362L534 388L530 408L527 410L530 417L532 437L512 483L494 504L484 508L468 514L426 523L424 522L421 524L376 528L368 527L390 524L396
518L395 517L350 516L349 517L271 509L241 500L233 497L230 492L218 488L208 477H211L232 472L255 457L280 426L287 428L293 434L307 441L327 457L342 467L345 464L344 463L330 452L336 454L350 463L353 460L352 459V457H354L355 459L370 462L388 464L396 462V460L395
459L382 457L333 446L301 428V426L318 428L323 423L334 392L345 372L362 338L365 341L368 338L365 336L359 331L357 332L349 342L345 343L347 336L345 334L344 336L335 352H331L327 349L323 345L314 343L304 346L300 351L298 354L296 365L304 376L305 383L284 386L281
388L284 391L298 394L310 392V394L305 400L298 417L290 420L259 390L260 388H264L265 390L269 386V385L280 383L285 379V375L284 374H282L281 375L266 377V376L262 352L265 334L277 310L311 273H314V274L318 284L319 294L321 297L339 298L363 292L376 287L383 280L379
276L368 271L353 253H357L359 254L387 263L411 266L416 263L428 264L441 271L467 310L483 334V337L487 341L491 346L497 382H494L478 372L449 362L426 360L421 357L380 354L355 357L347 370L350 372L380 369L448 374L461 379L491 387L521 395L522 394V392L516 387L503
385L500 345L497 342H494L489 333V326L486 321L466 282H468L482 298L497 322L505 332L507 331V327L505 323L502 314H503L508 320L523 342L532 362V362ZM739 475V479L726 492V497L720 503L698 519L680 528L674 532L664 534L659 532L651 538H646L623 548L597 558L559
567L520 572L463 573L456 569L453 567H437L379 556L372 551L363 546L334 529H339L355 531L359 533H364L446 529L461 524L488 511L500 509L517 493L540 455L543 445L541 444L538 419L534 413V406L541 397V395L543 391L541 387L543 385V380V379V370L546 372L557 390L566
401L579 424L614 457L644 469L663 477L697 482L727 479L739 475V475ZM298 343L287 357L284 369H285L293 354L301 343L325 338H326L327 337L326 336L309 338L298 343V343ZM486 360L487 351V349L484 346L471 345L456 341V338L464 327V323L456 331H453L441 317L432
308L421 303L411 305L408 310L411 323L409 325L400 322L394 318L392 320L401 326L390 328V331L416 338L451 354L477 367L482 366L486 360V360ZM421 294L400 302L392 310V313L401 305L416 300L436 302L437 303L438 302L421 294V294ZM367 300H363L360 302L362 305H367L369
302L367 300V300Z" />
<glyph unicode="_" glyph-name="underscore" horiz-adv-x="534" d="M1 -152H500V-199H1V-152Z" />
<glyph unicode="a" glyph-name="a" horiz-adv-x="522" d="M513 0H285L330 52L298 208H173L132 48L185 0H-1L69 52L208 556L145 606H301L455 44L513 0V0ZM183 245H288L235 457L183 245V245Z" />
<glyph unicode="b" glyph-name="b" horiz-adv-x="420" d="M244 312Q291 308 328 291Q344 284 359 273T385 247T403 211T409 164Q406 90 364 52Q342 31 308 21T242 5Q204 0 164 0H0L67 40V560L11 605H202Q217 605 244 600T299 580T346 537T369 460Q370 411 351
383T308 338Q280 320 244 312ZM169 334Q204 333 230 345Q241 350 252 358T271 380T283 412T287 456Q285 500 267 522T226 555Q200 566 169 567V334ZM304 168Q305 204 290 226T257 263Q241 274 225 279T196 286Q181 288 167 287V40Q178 39 190 41Q201 43 213 46T240
57Q263 70 283 96T304 168Z" />
<glyph unicode="c" glyph-name="c" horiz-adv-x="353" d="M334 263V28Q314 17 293 8Q275 0 253 -5T208 -11Q163 -11 122 11T51 79Q22 121 11 179T0 303Q0 362 9 413T42 506Q71 558 114 587T208 620Q247 622 271 617T310 605Q326 596 334 585V378L245 570Q232 578
206 575Q184 573 165 552T132 494T109 410T101 303Q101 246 109 197T132 111T166 54T207 33Q216 33 227 37T245 49L334 263Z" />
<glyph unicode="d" glyph-name="d" horiz-adv-x="405" d="M392 331Q397 236 373 162Q363 130 346 101T301 48T236 12T147 0H3L56 43V562L0 607H136Q206 607 261 579Q285 567 307 548T348 498T378 427T392 331ZM203 55Q215 62 232 76T264 120T288 196T297 318Q300
375 289 423Q284 444 277 465T257 504T228 538T187 561Q177 564 172 564T157 564V45Q165 44 173 45Q189 47 203 55Z" />
<glyph unicode="e" glyph-name="e" horiz-adv-x="375" d="M1 605H352V391L279 572H160V330H231L279 402V221L233 288H160V46H283L352 272V0H1L45 38V566L1 605V605Z" />
<glyph unicode="f" glyph-name="f" horiz-adv-x="375" d="M1 605H352V391L279 572H160V330H231L279 402V221L233 288H160V41L208 0H1L45 38V566L1 605Z" />
<glyph unicode="g" glyph-name="g" horiz-adv-x="389" d="M372 277L334 235V28Q314 17 293 8Q275 0 253 -5T208 -11Q163 -11 122 11T51 79Q22 121 11 179T0 303Q0 362 9 413T42 506Q71 558 114 587T208 620Q247 622 271 617T310 605Q326 596 334 585V391L245 570Q232
578 206 575Q184 573 165 552T132 494T109 410T101 303Q101 246 109 197T132 111T166 54T207 33Q216 33 227 37T245 49V234L206 277H372Z" />
<glyph unicode="h" glyph-name="h" horiz-adv-x="437" d="M382 570V45L421 0H231L278 45V280H148V42L192 0H5L45 42V565L0 605H185L148 562V324H278V565L237 605H425L382 570Z" />
<glyph unicode="i" glyph-name="i" horiz-adv-x="231" d="M1 605H210L168 575V43L211 0H5L48 41V572L1 605V605Z" />
<glyph unicode="j" glyph-name="j" horiz-adv-x="304" d="M296 605L250 565V175Q250 126 235 87Q228 70 218 55T191 27T152 7T98 0Q69 0 50 8T20 25Q7 36 0 49L24 75Q28 68 36 64Q43 60 54 57T83 56Q105 58 116 74T133 110Q138 133 138 161V567L90 605H296Z" />
<glyph unicode="k" glyph-name="k" horiz-adv-x="468" d="M152 40L195 0H0L50 42V571L2 605H195L152 571V375L281 572L253 605H389L342 572L199 349L403 41L461 0H227L280 36L152 238V40Z" />
<glyph unicode="l" glyph-name="l" horiz-adv-x="322" d="M308 0H0L49 37V565L0 605H216L168 571V39H237L308 261V0V0Z" />
<glyph unicode="m" glyph-name="m" horiz-adv-x="597" d="M0 0L50 42V563L0 605H163L291 259L430 605H582L530 563V40L578 0H366L419 40V435L266 0L118 435V44L161 0H0Z" />
<glyph unicode="n" glyph-name="n" horiz-adv-x="409" d="M0 0L50 42V563L0 605H118L301 262V571L259 605H398L366 575V0H301L118 369V44L161 0H0V0Z" />
<glyph unicode="o" glyph-name="o" horiz-adv-x="430" d="M376 498Q396 459 406 409T416 303Q416 271 412 239T401 176T382 118T358 70Q330 25 291 7T208 -11Q164 -11 122 12T51 79Q22 121 11 179T0 303Q0 361 9 412T42 506Q71 559 114 589T208 620Q259 620 303
588T376 498ZM207 33Q229 33 247 54T279 111T301 196T309 303Q309 361 301 410T279 497T247 555T206 576Q185 576 166 555T132 497T110 411T101 303Q101 246 109 197T132 111T166 54T207 33Z" />
<glyph unicode="p" glyph-name="p" horiz-adv-x="379" d="M169 334Q204 333 230 345Q241 350 252 358T271 380T283 412T287 456Q285 500 267 522T226 555Q200 566 169 567V334ZM0 0L67 40V560L11 605H202Q217 605 245 600T300 580T347 537T369 460Q370 418 359
389T331 341T290 312T245 297T202 291T167 291V40L233 0H0Z" />
<glyph unicode="q" glyph-name="q" horiz-adv-x="500" d="M-21 -48Q-19 -28 -8 -13T19 13T53 29T89 36Q78 45 69 55T51 79Q22 121 11 179T0 303Q0 361 9 412T42 506Q71 559 114 589T208 620Q259 620 303 588T376 498Q396 459 406 409T416 303Q416 271 412 239T401
176T382 118T358 70Q344 47 326 32T288 6Q302 -9 320 -20T355 -38Q373 -47 393 -52L554 -14L407 -135Q388 -138 372 -137T344 -133T322 -125T308 -117Q279 -99 258 -79T215 -43T164 -16T94 -8Q65 -10 36 -22T-8 -66L-21 -48ZM101 303Q101 255 107 213T123 136T148
77T180 41Q200 40 220 35Q239 41 255 64T284 122T302 204T309 303Q309 361 301 410T279 497T247 555T206 576Q185 576 166 555T132 497T110 411T101 303Z" />
<glyph unicode="r" glyph-name="r" horiz-adv-x="466" d="M0 0L67 40V560L11 605H202Q217 605 245 600T300 580T347 537T369 460Q370 414 358 383T328 332T291 303T259 294L395 41L448 0H294L167 262V40L233 0H0ZM169 334Q204 333 230 345Q241 350 252 358T271
380T283 412T287 456Q285 500 267 522T226 555Q200 566 169 567V334Z" />
<glyph unicode="s" glyph-name="s" horiz-adv-x="360" d="M231 552Q211 561 192 565Q175 567 157 564T122 542Q99 516 102 493T124 444T173 393T237 335Q274 300 295 273T326 223T337 177T338 127Q336 85 318 60T275 22T224 4T177 -1Q132 -2 102 3T55 16Q35 24
24 34V265L102 62Q113 52 127 47Q139 42 155 40T192 42Q211 46 222 56T238 81T244 113T239 148Q231 183 205 209T148 261Q124 281 105 298T69 333T42 367T25 404Q11 450 18 488T48 554T103 596T173 611Q210 611 236 607T280 596Q300 589 314 580V374L231 552Z"
/>
<glyph unicode="t" glyph-name="t" horiz-adv-x="355" d="M0 396V605H348V394L279 559H232V41L276 0H74L119 39V559H66L0 396Z" />
<glyph unicode="u" glyph-name="u" horiz-adv-x="401" d="M198 605L158 567V161Q158 131 163 108Q168 88 179 72T213 56Q240 56 253 73T272 111Q278 136 278 167V566L241 605H389L349 567V172Q350 124 335 86Q329 70 318 55T291 27T252 8T198 0Q167 0 144 7T105
27T77 54T60 87Q44 126 46 175V565L0 605H198Z" />
<glyph unicode="v" glyph-name="v" horiz-adv-x="457" d="M0 605H202L157 564L247 236L324 565L268 605H445L387 564L249 0H203L49 564L0 605Z" />
<glyph unicode="w" glyph-name="w" horiz-adv-x="733" d="M0 605H202L157 564L247 236L324 564L268 605H477L432 564L522 236L599 565L543 605H720L662 564L524 0H478L357 442L249 0H203L49 564L0 605Z" />
<glyph unicode="x" glyph-name="x" horiz-adv-x="486" d="M-10 605H179L152 574L235 407L315 572L287 605H427L380 572L267 344L421 41L479 0H248L301 36L206 232L122 41L165 0H0L57 41L174 299L41 567L-10 605V605Z" />
<glyph unicode="y" glyph-name="y" horiz-adv-x="416" d="M-3 605H178L148 564L224 393L298 564L264 605H390L355 564L256 328V43L292 0H104L144 46V325L42 564L-3 605V605Z" />
<glyph unicode="z" glyph-name="z" horiz-adv-x="357" d="M261 42L336 274V0H0L209 566H83L0 390V605H336L125 42H261Z" />
<glyph unicode="{" glyph-name="braceleft" horiz-adv-x="326" d="M288 730Q290 722 291 716T292 712Q249 712 226 703T192 676T181 634T187 581T198 518T206 450Q208 397 190 363T150 310T110 284T92 278Q92 279 110 273T149 247T188 192T206 99Q206 52 200 13T189
-57T183 -111T191 -151T223 -175T290 -183Q291 -195 292 -204Q293 -212 293 -218T292 -223Q225 -225 186 -213T126 -178T102 -126T100 -59T111 16T121 94Q123 122 119 144T107 183T88 212T65 232Q37 250 -1 256V273Q-1 279 -1 284T0 289Q58 306 83 336T114 408T113
499T99 606Q94 652 110 679T150 720Q178 737 202 742T245 749T273 749T284 750L288 730Z" />
<glyph unicode="|" glyph-name="bar" horiz-adv-x="185" d="M71 701H118V-165H71V701Z" />
<glyph unicode="}" glyph-name="braceright" horiz-adv-x="317" d="M10 750Q10 747 20 748T49 749T91 743T144 720Q167 707 183 680T195 606Q188 550 181 500T180 408T211 337T294 289V284Q294 282 294 279T295 273V256Q257 250 229 232Q217 224 206 212T187 184T174
145T173 94Q176 55 183 16T193 -59T193 -125T168 -178T109 -212T2 -223Q0 -224 0 -218T1 -204Q2 -195 4 -183Q47 -183 70 -175T103 -151T111 -112T105 -57T94 13T88 99Q88 156 105 191T144 246T184 272T202 278Q203 277 185 283T144 309T104 363T88 450Q89 485
95 518T107 580T112 634T103 675T69 702T2 712Q1 710 2 716T6 730L10 750Z" />
</font>
</defs>
</svg>
